<svg width="1920" height="374" viewBox="0 0 1920 374" fill="none" xmlns="http://www.w3.org/2000/svg">
<path fill-rule="evenodd" clip-rule="evenodd" d="M671.829 1.99627C679.981 1.95667 688.084 2.0161 696.131 2.17213L696.15 1.17232C688.095 1.01613 679.984 0.95664 671.824 0.996284L671.829 1.99627ZM623.144 3.40105C631.298 2.97078 639.416 2.64022 647.493 2.40705L647.464 1.40747C639.379 1.64086 631.253 1.97175 623.092 2.40244L623.144 3.40105ZM720.404 2.94104C728.585 3.30142 736.7 3.76205 744.74 4.32021L744.809 3.32261C736.76 2.76386 728.638 2.30276 720.448 1.94201L720.404 2.94104ZM574.689 7.11295C582.788 6.29876 590.864 5.58457 598.912 4.96821L598.835 3.97113C590.779 4.5881 582.696 5.30298 574.589 6.11797L574.689 7.11295ZM769.003 6.3199C777.149 7.09848 785.208 7.97828 793.172 8.95632L793.294 7.96377C785.321 6.98463 777.253 6.10386 769.098 5.32444L769.003 6.3199ZM526.396 13.1383C534.441 11.9374 542.477 10.8378 550.496 9.83742L550.373 8.84511C542.345 9.84646 534.302 10.9471 526.248 12.1492L526.396 13.1383ZM817.227 12.2505C825.331 13.4773 833.324 14.8078 841.196 16.2386L841.375 15.2547C833.493 13.8221 825.491 12.49 817.377 11.2618L817.227 12.2505ZM478.482 21.4869C486.457 19.8947 494.431 18.4056 502.401 17.0174L502.229 16.0323C494.252 17.4218 486.269 18.9125 478.287 20.5063L478.482 21.4869ZM865.102 20.9701C873.157 22.6984 881.066 24.5351 888.82 26.4762L889.063 25.5061C881.298 23.5622 873.377 21.723 865.311 19.9924L865.102 20.9701ZM431.038 32.2028C438.908 30.2144 446.789 28.3307 454.675 26.5499L454.455 25.5745C446.56 27.3571 438.671 29.2427 430.793 31.2333L431.038 32.2028ZM912.314 32.8142C920.249 35.1156 927.993 37.5316 935.533 40.0572L935.851 39.109C928.297 36.5789 920.54 34.1588 912.592 31.8538L912.314 32.8142ZM384.188 45.3448C391.95 42.9449 399.734 40.6524 407.533 38.4654L407.263 37.5025C399.455 39.6919 391.664 41.9868 383.892 44.3894L384.188 45.3448ZM958.41 48.2983C962.189 49.761 965.907 51.2532 969.56 52.7743C973.187 54.2842 976.764 55.7981 980.293 57.3159L980.688 56.3972C977.156 54.8779 973.575 53.3625 969.945 51.8511C966.283 50.3267 962.558 48.8314 958.771 47.3658L958.41 48.2983ZM338.14 60.9603C345.752 58.1431 353.395 55.4356 361.063 52.8361L360.742 51.8891C353.065 54.4915 345.414 57.202 337.793 60.0225L338.14 60.9603ZM1001.35 66.6714C1008.48 69.9493 1015.42 73.2432 1022.15 76.5511L1022.59 75.6535C1015.85 72.3417 1008.91 69.0442 1001.76 65.7626L1001.35 66.6714ZM293.022 79.1313C300.457 75.8844 307.932 72.75 315.443 69.7262L315.069 68.7986C307.55 71.8259 300.066 74.9641 292.622 78.2149L293.022 79.1313ZM1042.68 86.9773C1049.63 90.6259 1056.36 94.2892 1062.9 97.9649L1063.39 97.0932C1056.84 93.4129 1050.1 89.7451 1043.15 86.0921L1042.68 86.9773ZM249.049 99.9171C256.28 96.2272 263.56 92.6526 270.884 89.1915L270.457 88.2873C263.123 91.7527 255.834 95.3318 248.594 99.0264L249.049 99.9171ZM1082.78 109.536C1089.52 113.591 1096.05 117.658 1102.39 121.735L1102.93 120.893C1096.58 116.812 1090.05 112.74 1083.3 108.679L1082.78 109.536ZM1121.58 134.477C1128.02 138.889 1134.28 143.308 1140.37 147.729L1140.96 146.92C1134.86 142.493 1128.6 138.069 1122.15 133.652L1121.58 134.477ZM165.453 149.515C172.147 144.925 178.908 140.455 185.732 136.103L185.194 135.26C178.361 139.618 171.59 144.094 164.887 148.69L165.453 149.515ZM1158.88 161.517C1165.07 166.238 1171.11 170.958 1177.04 175.672L1177.66 174.889C1171.72 170.172 1165.68 165.448 1159.49 160.723L1158.88 161.517ZM126.312 178.371C132.681 173.326 139.126 168.402 145.642 163.599L145.049 162.794C138.524 167.604 132.069 172.534 125.691 177.587L126.312 178.371ZM1194.98 190.156C1200.97 195.053 1206.88 199.939 1212.76 204.808L1213.4 204.038C1207.52 199.168 1201.61 194.281 1195.62 189.382L1194.98 190.156ZM89.3082 209.882C95.2988 204.398 101.373 199.038 107.526 193.8L106.877 193.038C100.716 198.284 94.6325 203.652 88.633 209.144L89.3082 209.882ZM1230.52 219.52C1236.44 224.416 1242.37 229.289 1248.36 234.135L1248.99 233.358C1243.01 228.515 1237.08 223.644 1231.15 218.75L1230.52 219.52ZM54.6585 243.999C60.2362 238.089 65.9039 232.302 71.6573 226.637L70.9558 225.925C65.1936 231.598 59.5173 237.394 53.9312 243.313L54.6585 243.999ZM1921.15 237.369C1920.88 237.288 1920.6 237.437 1920.52 237.701C1919.37 241.483 1917.91 245.212 1916.15 248.887L1917.05 249.318C1918.83 245.601 1920.31 241.825 1921.48 237.993C1921.56 237.729 1921.41 237.449 1921.15 237.369ZM1266.39 248.499C1272.4 253.199 1278.5 257.866 1284.74 262.496L1285.33 261.693C1279.11 257.069 1273.01 252.407 1267 247.711L1266.39 248.499ZM22.6051 280.595C27.746 274.265 32.9832 268.06 38.3126 261.976L37.5603 261.317C32.2229 267.41 26.9776 273.625 21.8288 279.965L22.6051 280.595ZM1886.98 287.119C1893.36 281.526 1899.03 275.72 1903.92 269.719L1903.15 269.088C1898.3 275.04 1892.66 280.806 1886.32 286.367L1886.98 287.119ZM1303.43 275.966C1309.66 280.307 1316.04 284.609 1322.61 288.868L1323.15 288.029C1316.59 283.777 1310.22 279.481 1304.01 275.146L1303.43 275.966ZM0.405225 309.548C2.79841 306.239 5.2165 302.961 7.65913 299.714L6.86006 299.113C4.41365 302.365 1.99177 305.648 -0.405078 308.962C-0.566943 309.186 -0.51665 309.498 -0.293017 309.66C-0.0692623 309.822 0.24336 309.772 0.405225 309.548ZM1342.14 301.044C1348.61 304.916 1355.28 308.747 1362.16 312.533L1362.64 311.657C1355.77 307.877 1349.12 304.052 1342.66 300.186L1342.14 301.044ZM1847.13 314.63C1854.42 310.571 1861.31 306.336 1867.75 301.938L1867.18 301.112C1860.77 305.492 1853.91 309.71 1846.65 313.756L1847.13 314.63ZM1382.62 323.305C1389.31 326.679 1396.22 330.012 1403.35 333.302L1403.77 332.394C1396.64 329.109 1389.75 325.781 1383.07 322.412L1382.62 323.305ZM1803.22 335.165C1810.89 332.146 1818.32 328.971 1825.47 325.647L1825.05 324.74C1817.92 328.055 1810.51 331.223 1802.85 334.234L1803.22 335.165ZM1424.43 342.611C1427.96 344.103 1431.54 345.585 1435.19 347.057C1438.89 348.553 1442.66 349.982 1446.49 351.344L1446.83 350.402C1443.01 349.045 1439.25 347.621 1435.56 346.129C1431.92 344.659 1428.34 343.179 1424.82 341.69L1424.43 342.611ZM1757.25 350.573C1765.12 348.345 1772.85 345.967 1780.39 343.448L1780.07 342.499C1772.54 345.014 1764.84 347.387 1756.97 349.611L1757.25 350.573ZM1710.07 361.784C1718.07 360.224 1725.99 358.516 1733.79 356.665L1733.56 355.692C1725.77 357.539 1717.87 359.245 1709.88 360.802L1710.07 361.784ZM1469.65 358.58C1477.33 360.672 1485.2 362.532 1493.23 364.165L1493.42 363.185C1485.42 361.556 1477.57 359.701 1469.91 357.615L1469.65 358.58ZM1662.19 369.212C1670.24 368.277 1678.25 367.19 1686.2 365.958L1686.05 364.969C1678.11 366.2 1670.11 367.285 1662.07 368.218L1662.19 369.212ZM1517.14 368.308C1525.05 369.451 1533.09 370.396 1541.21 371.147L1541.3 370.151C1533.19 369.401 1525.18 368.459 1517.28 367.318L1517.14 368.308ZM1613.87 372.951C1621.93 372.642 1630 372.173 1638.06 371.548L1637.98 370.551C1629.94 371.175 1621.88 371.643 1613.83 371.951L1613.87 372.951ZM1565.38 372.809C1573.41 373.176 1581.5 373.367 1589.62 373.388L1589.63 372.388C1581.52 372.367 1573.44 372.177 1565.43 371.81L1565.38 372.809ZM1614.33 298C1603.12 298 1594 307.122 1594 318.321C1593.93 334.444 1612.95 347.856 1614.28 348.798L1614.33 348.833C1614.33 348.833 1634.74 334.702 1634.67 318.333C1634.67 307.122 1625.54 298 1614.33 298ZM1614.33 328.5C1608.72 328.5 1604.17 323.95 1604.17 318.333C1604.17 312.716 1608.72 308.167 1614.33 308.167C1619.95 308.167 1624.5 312.716 1624.5 318.333C1624.5 323.95 1619.95 328.5 1614.33 328.5ZM227.8 143.64L223.354 147.201L217.438 119.561L206.446 128.363L206.519 140.446L201.827 144.204L198.577 126.571L185.942 116.453L190.635 112.695L200.092 117.263L210.887 108.618L191.587 91.697L195.784 88.3357L223.308 98.6713L232.939 90.9585C234.183 89.9619 235.712 89.5909 237.187 89.927C238.663 90.2632 239.966 91.279 240.808 92.751C241.651 94.223 241.964 96.0306 241.68 97.7762C241.396 99.5218 240.537 101.062 239.293 102.059L229.908 109.574L227.8 143.64Z" fill="#FF7B59"/>
</svg>
