<svg width="60" height="74" viewBox="0 0 60 74" fill="none" xmlns="http://www.w3.org/2000/svg">
<path d="M30 0.333496C13.8263 0.333496 0.66668 13.4932 0.66668 29.6485C0.560347 53.2802 28.8853 72.8748 30 73.6668C30 73.6668 59.4397 53.2802 59.3333 29.6668C59.3333 13.4932 46.1737 0.333496 30 0.333496ZM30 44.3335C21.8967 44.3335 15.3333 37.7702 15.3333 29.6668C15.3333 21.5635 21.8967 15.0002 30 15.0002C38.1033 15.0002 44.6667 21.5635 44.6667 29.6668C44.6667 37.7702 38.1033 44.3335 30 44.3335Z" fill="#FF7B59"/>
<path d="M30 44.3335C21.8967 44.3335 15.3333 37.7702 15.3333 29.6668C15.3333 21.5635 21.8967 15.0002 30 15.0002C38.1033 15.0002 44.6667 21.5635 44.6667 29.6668C44.6667 37.7702 38.1033 44.3335 30 44.3335Z" fill="white"/>
</svg>
