<svg width="95" height="113" viewBox="0 0 95 113" fill="none" xmlns="http://www.w3.org/2000/svg">
<g clip-path="url(#clip0_16_140)">
<path d="M53.2231 92.4025L57.6691 88.842L59.7774 54.7761L69.1621 47.2606C70.4066 46.264 71.2654 44.7234 71.5496 42.9778C71.8338 41.2323 71.5201 39.4246 70.6775 37.9526C69.8349 36.4806 68.5325 35.4648 67.0567 35.1287C65.5809 34.7925 64.0527 35.1636 62.8082 36.1602L53.1772 43.873L25.6533 33.5373L21.456 36.8987L40.7565 53.8198L29.9618 62.4645L20.504 57.897L15.8117 61.6547L28.4464 71.7725L31.6964 89.4057L36.3888 85.648L36.3157 73.5649L47.3075 64.7624L53.2231 92.4025Z" fill="#FF7B59"/>
</g>
<defs>
<clipPath id="clip0_16_140">
<rect width="76.7416" height="72.1387" fill="white" transform="matrix(0.496776 0.867878 -0.780554 0.625089 56.3081 0.894043)"/>
</clipPath>
</defs>
</svg>
