<svg width="40" height="40" viewBox="0 0 40 40" fill="none" xmlns="http://www.w3.org/2000/svg">
<rect width="40" height="40" rx="20" fill="#FF7B59"/>
<path d="M19.9236 9.00384C18.0778 9.02612 14.1096 9.32943 11.8901 11.3656C10.2391 13.0015 9.66271 15.4201 9.59514 18.4108C9.53908 21.3908 9.47152 26.987 14.8657 28.5107V30.8316C14.8657 30.8316 14.832 31.7602 15.4458 31.9506C16.2019 32.19 16.6324 31.4756 17.3512 30.7079L18.6916 29.1921C22.3824 29.499 25.2093 28.7917 25.5349 28.6868C26.2838 28.4475 30.5021 27.9084 31.1914 22.3115C31.8987 16.5313 30.8471 12.8894 28.9489 11.242H28.9374C28.3646 10.7145 26.0624 9.0369 20.9191 9.01821C20.9191 9.01821 20.5374 8.99234 19.9236 9.00312V9.00384ZM19.9868 10.6289C20.5108 10.6253 20.8292 10.6476 20.8292 10.6476C25.1827 10.6591 27.2606 11.9694 27.7508 12.4107C29.3493 13.7806 30.173 17.0639 29.5699 21.8896C28.9971 26.5686 25.5758 26.8648 24.9426 27.0667C24.6731 27.153 22.1833 27.7668 19.0467 27.5648C19.0467 27.5648 16.7108 30.3838 15.9805 31.1097C15.8648 31.2369 15.7297 31.2743 15.6434 31.2556C15.5198 31.2254 15.4824 31.0723 15.4896 30.8625L15.5119 27.0107C10.9371 25.7457 11.2066 20.9725 11.2555 18.4791C11.3115 15.9858 11.7794 13.946 13.1724 12.5645C15.0476 10.869 18.4171 10.6404 19.9854 10.6289H19.9868ZM20.3318 13.1216C20.2942 13.1212 20.2568 13.1283 20.2219 13.1424C20.187 13.1565 20.1552 13.1774 20.1285 13.2039C20.1017 13.2303 20.0804 13.2618 20.0658 13.2965C20.0513 13.3313 20.0437 13.3685 20.0436 13.4062C20.0436 13.5672 20.1744 13.6944 20.3318 13.6944C21.0445 13.6808 21.7528 13.8085 22.4158 14.07C23.0789 14.3316 23.6836 14.7218 24.1951 15.2181C25.2395 16.2323 25.7483 17.5951 25.7677 19.3768C25.7677 19.5342 25.895 19.6651 26.056 19.6651V19.6536C26.1318 19.6537 26.2047 19.6239 26.2587 19.5706C26.3127 19.5173 26.3434 19.4448 26.3442 19.3689C26.3791 18.5303 26.2431 17.6932 25.9444 16.9088C25.6458 16.1243 25.1907 15.4087 24.607 14.8056C23.4692 13.6937 22.0274 13.1208 20.3318 13.1208V13.1216ZM16.5433 13.7806C16.3399 13.7509 16.1324 13.7918 15.9554 13.8964H15.9403C15.5293 14.1372 15.1591 14.4417 14.8435 14.7984C14.5811 15.1017 14.4388 15.4086 14.4014 15.704C14.3791 15.8801 14.3942 16.0562 14.4467 16.2244L14.4654 16.2359C14.7608 17.1041 15.1468 17.9393 15.6183 18.7256C16.2256 19.8303 16.9731 20.852 17.8421 21.7652L17.868 21.8026L17.9089 21.8328L17.9348 21.863L17.965 21.8889C18.8816 22.7604 19.9057 23.5114 21.0125 24.1235C22.2775 24.812 23.0451 25.1376 23.5058 25.2727V25.2799C23.641 25.3209 23.7639 25.3396 23.8875 25.3396C24.2801 25.3108 24.6518 25.1514 24.9433 24.8868C25.2984 24.571 25.5995 24.1993 25.8346 23.7864V23.7792C26.0552 23.3637 25.9805 22.9706 25.6621 22.7046C25.0244 22.1473 24.3349 21.6522 23.6029 21.2262C23.1127 20.9602 22.6146 21.1212 22.4126 21.3908L21.9821 21.9334C21.7614 22.203 21.3604 22.1656 21.3604 22.1656L21.3489 22.1728C18.3581 21.4087 17.5603 18.3806 17.5603 18.3806C17.5603 18.3806 17.523 17.9688 17.7997 17.7589L18.3387 17.3248C18.5968 17.1149 18.7765 16.6176 18.4997 16.1266C18.0767 15.3936 17.5827 14.7039 17.0249 14.0674C16.9029 13.9174 16.7318 13.8153 16.5419 13.7792L16.5433 13.7806ZM20.8292 14.6345C20.4475 14.6345 20.4475 15.211 20.8328 15.211C21.3074 15.2187 21.7758 15.3198 22.2113 15.5086C22.6467 15.6974 23.0407 15.9702 23.3707 16.3114C23.6717 16.6434 23.9031 17.0325 24.051 17.4556C24.1989 17.8787 24.2604 18.3272 24.2318 18.7745C24.2331 18.8502 24.264 18.9224 24.3179 18.9756C24.3717 19.0288 24.4443 19.0588 24.52 19.0591L24.5315 19.0742C24.6078 19.0737 24.6807 19.0431 24.7347 18.9892C24.7886 18.9353 24.8191 18.8623 24.8197 18.786C24.8456 17.6439 24.4905 16.6858 23.794 15.9182C23.094 15.1506 22.1172 14.7201 20.8702 14.6345H20.8292ZM21.3014 16.1841C20.9083 16.1726 20.8932 16.7606 21.2827 16.7721C22.2301 16.821 22.6901 17.2996 22.7504 18.2843C22.7517 18.3591 22.7823 18.4303 22.8355 18.4829C22.8887 18.5354 22.9603 18.565 23.035 18.5654H23.0465C23.085 18.5637 23.1227 18.5544 23.1575 18.538C23.1923 18.5217 23.2235 18.4985 23.2493 18.4699C23.275 18.4414 23.2948 18.408 23.3075 18.3716C23.3202 18.3353 23.3256 18.2969 23.3233 18.2585C23.2557 16.9748 22.5556 16.2517 21.3129 16.1849H21.3014V16.1841Z" fill="white"/>
</svg>
