<svg width="26" height="26" viewBox="0 0 26 26" fill="none" xmlns="http://www.w3.org/2000/svg">
<path d="M13 1.08333C13.7691 1.08333 14.5058 1.18083 15.2208 1.36499C16.4883 3.06583 17.3333 6.18583 17.3333 9.75C17.3333 12.22 16.9216 14.4842 16.25 17.3333C16.25 17.908 16.0217 18.4591 15.6154 18.8654C15.209 19.2717 14.6579 19.5 14.0833 19.5H11.9166C11.342 19.5 10.7909 19.2717 10.3846 18.8654C9.97823 18.4591 9.74996 17.908 9.74996 17.3333C9.07829 14.4842 8.66663 12.22 8.66663 9.75C8.66663 6.18583 9.51163 3.06583 10.7791 1.36499C11.4941 1.18083 12.2308 1.08333 13 1.08333Z" fill="#DCA52B"/>
<path d="M10.3846 24.2821C10.7909 24.6884 11.342 24.9167 11.9167 24.9167H14.0833C14.658 24.9167 15.2091 24.6884 15.6154 24.2821C16.0217 23.8757 16.25 23.3246 16.25 22.75V20.5833H9.75V22.75C9.75 23.3246 9.97827 23.8757 10.3846 24.2821Z" fill="#C52609"/>
<path d="M16.7483 18.6442C19.6625 17.2467 21.6666 12.1117 21.6666 8.66668C21.6666 5.22168 19.6625 3.33668 16.7483 1.93918C17.7775 3.91085 18.4166 6.68418 18.4166 9.75001C18.4166 12.8158 17.7775 16.6725 16.7483 18.6442Z" fill="#9F5F84"/>
<path d="M9.25171 1.93918C6.33754 3.33668 4.33337 5.22168 4.33337 8.66668C4.33337 12.1117 6.33754 17.2467 9.25171 18.6442C8.22254 16.6725 7.58337 12.8158 7.58337 9.75001C7.58337 6.68418 8.22254 3.91085 9.25171 1.93918Z" fill="#9F5F84"/>
</svg>
