<svg width="200" height="36" viewBox="0 0 200 36" fill="none" xmlns="http://www.w3.org/2000/svg">
<path d="M23.6309 24.3859V31.6095H0V3.20224H23.1031V10.4258H9.41989V13.7535H21.4384V20.6524H9.41989V24.3859H23.6309Z" fill="white"/>
<path d="M45.1086 31.6095L40.1957 24.0207L35.4045 31.6095H24.4823L34.7549 17.2841L24.8477 3.20224H35.6075L40.4393 10.3446L45.1492 3.20224H55.4624L45.5958 16.9189L56.0714 31.6095H45.1086Z" fill="white"/>
<path d="M70.9397 3.20224C73.5654 3.20224 75.8527 3.63512 77.8016 4.50086C79.7505 5.36661 81.2529 6.61112 82.3085 8.23439C83.3642 9.85766 83.892 11.7515 83.892 13.9158C83.892 16.0802 83.3642 17.974 82.3085 19.5973C81.2529 21.2206 79.7505 22.4651 77.8016 23.3308C75.8527 24.1966 73.5654 24.6294 70.9397 24.6294H66.8388V31.6095H57.2565V3.20224H70.9397ZM70.3307 17.2436C71.63 17.2436 72.6044 16.9595 73.2541 16.3913C73.9037 15.7961 74.2285 14.971 74.2285 13.9158C74.2285 12.8607 73.9037 12.0491 73.2541 11.4809C72.6044 10.8857 71.63 10.5881 70.3307 10.5881H66.8388V17.2436H70.3307Z" fill="white"/>
<path d="M87.0347 3.20224H96.617V24.183H109.447V31.6095H87.0347V3.20224Z" fill="white"/>
<path d="M126.599 32.2588C123.54 32.2588 120.793 31.623 118.357 30.3515C115.92 29.0799 114.012 27.3214 112.632 25.0758C111.251 22.8033 110.561 20.2466 110.561 17.4059C110.561 14.5652 111.251 12.022 112.632 9.7765C114.012 7.50392 115.92 5.73184 118.357 4.46028C120.793 3.18872 123.54 2.55294 126.599 2.55294C129.658 2.55294 132.405 3.18872 134.841 4.46028C137.278 5.73184 139.186 7.50392 140.566 9.7765C141.947 12.022 142.637 14.5652 142.637 17.4059C142.637 20.2466 141.947 22.8033 140.566 25.0758C139.186 27.3214 137.278 29.0799 134.841 30.3515C132.405 31.623 129.658 32.2588 126.599 32.2588ZM126.599 24.5077C127.79 24.5077 128.859 24.2236 129.807 23.6555C130.781 23.0603 131.553 22.2351 132.121 21.18C132.689 20.0978 132.974 18.8398 132.974 17.4059C132.974 15.972 132.689 14.7275 132.121 13.6724C131.553 12.5902 130.781 11.765 129.807 11.1969C128.859 10.6017 127.79 10.3041 126.599 10.3041C125.408 10.3041 124.325 10.6017 123.351 11.1969C122.403 11.765 121.646 12.5902 121.077 13.6724C120.509 14.7275 120.224 15.972 120.224 17.4059C120.224 18.8398 120.509 20.0978 121.077 21.18C121.646 22.2351 122.403 23.0603 123.351 23.6555C124.325 24.2236 125.408 24.5077 126.599 24.5077Z" fill="white"/>
<path d="M158.296 24.4671H155.697V31.6095H146.115V3.20224H159.798C162.424 3.20224 164.711 3.63512 166.66 4.50086C168.609 5.36661 170.111 6.61112 171.167 8.23439C172.223 9.85766 172.751 11.7515 172.751 13.9158C172.751 15.9449 172.29 17.717 171.37 19.2321C170.45 20.7471 169.123 21.951 167.391 22.8438L173.36 31.6095H163.128L158.296 24.4671ZM163.087 13.9158C163.087 12.8607 162.762 12.0491 162.113 11.4809C161.463 10.8857 160.489 10.5881 159.189 10.5881H155.697V17.2436H159.189C160.489 17.2436 161.463 16.9595 162.113 16.3913C162.762 15.7961 163.087 14.971 163.087 13.9158Z" fill="white"/>
<path d="M200 24.3859V31.6095H176.369V3.20224H199.472V10.4258H185.789V13.7535H197.807V20.6524H185.789V24.3859H200Z" fill="white"/>
</svg>
