<svg width="200" height="49" viewBox="0 0 200 49" fill="none" xmlns="http://www.w3.org/2000/svg">
<path d="M23.6309 32.3859V39.6095H0V11.2022H23.1031V18.4258H9.41989V21.7535H21.4384V28.6524H9.41989V32.3859H23.6309Z" fill="white"/>
<path d="M45.1086 39.6095L40.1957 32.0207L35.4045 39.6095H24.4823L34.7549 25.2841L24.8477 11.2022H35.6075L40.4393 18.3446L45.1492 11.2022H55.4624L45.5958 24.9189L56.0714 39.6095H45.1086Z" fill="white"/>
<path d="M70.9397 11.2022C73.5654 11.2022 75.8527 11.6351 77.8016 12.5009C79.7505 13.3666 81.2529 14.6111 82.3085 16.2344C83.3642 17.8577 83.892 19.7515 83.892 21.9158C83.892 24.0802 83.3642 25.974 82.3085 27.5973C81.2529 29.2206 79.7505 30.4651 77.8016 31.3308C75.8527 32.1966 73.5654 32.6294 70.9397 32.6294H66.8388V39.6095H57.2565V11.2022H70.9397ZM70.3307 25.2435C71.63 25.2435 72.6044 24.9595 73.2541 24.3913C73.9037 23.7961 74.2285 22.971 74.2285 21.9158C74.2285 20.8607 73.9037 20.0491 73.2541 19.4809C72.6044 18.8857 71.63 18.5881 70.3307 18.5881H66.8388V25.2435H70.3307Z" fill="white"/>
<path d="M87.0347 11.2022H96.617V32.183H109.447V39.6095H87.0347V11.2022Z" fill="white"/>
<path d="M158.296 32.4671H155.697V39.6095H146.115V11.2022H159.798C162.424 11.2022 164.711 11.6351 166.66 12.5009C168.609 13.3666 170.111 14.6111 171.167 16.2344C172.223 17.8577 172.751 19.7515 172.751 21.9158C172.751 23.9449 172.29 25.717 171.37 27.2321C170.45 28.7471 169.123 29.951 167.391 30.8438L173.36 39.6095H163.128L158.296 32.4671ZM163.087 21.9158C163.087 20.8607 162.762 20.0491 162.113 19.4809C161.463 18.8857 160.489 18.5881 159.189 18.5881H155.697V25.2435H159.189C160.489 25.2435 161.463 24.9595 162.113 24.3913C162.762 23.7961 163.087 22.971 163.087 21.9158Z" fill="white"/>
<path d="M200 32.3859V39.6095H176.369V11.2022H199.472V18.4258H185.789V21.7535H197.807V28.6524H185.789V32.3859H200Z" fill="white"/>
<path d="M125.5 2.04167C126.95 2.04167 128.338 2.22542 129.685 2.5725C132.074 5.77792 133.667 11.6579 133.667 18.375C133.667 23.03 132.891 27.2971 131.625 32.6667C131.625 33.7496 131.195 34.7882 130.429 35.554C129.663 36.3198 128.625 36.75 127.542 36.75H123.458C122.375 36.75 121.337 36.3198 120.571 35.554C119.805 34.7882 119.375 33.7496 119.375 32.6667C118.109 27.2971 117.333 23.03 117.333 18.375C117.333 11.6579 118.926 5.77792 121.315 2.5725C122.662 2.22542 124.05 2.04167 125.5 2.04167Z" fill="#DCA52B"/>
<path d="M120.571 45.7624C121.337 46.5282 122.375 46.9584 123.458 46.9584H127.542C128.625 46.9584 129.663 46.5282 130.429 45.7624C131.195 44.9966 131.625 43.958 131.625 42.875V38.7917H119.375V42.875C119.375 43.958 119.805 44.9966 120.571 45.7624Z" fill="#C52609"/>
<path d="M132.564 35.1371C138.056 32.5033 141.833 22.8258 141.833 16.3333C141.833 9.84085 138.056 6.28835 132.564 3.6546C134.504 7.37043 135.708 12.5971 135.708 18.375C135.708 24.1529 134.504 31.4213 132.564 35.1371Z" fill="#9F5F84"/>
<path d="M118.436 3.6546C112.944 6.28835 109.167 9.84085 109.167 16.3333C109.167 22.8258 112.944 32.5033 118.436 35.1371C116.496 31.4213 115.292 24.1529 115.292 18.375C115.292 12.5971 116.496 7.37043 118.436 3.6546Z" fill="#9F5F84"/>
</svg>
