<svg width="102" height="102" viewBox="0 0 102 102" fill="none" xmlns="http://www.w3.org/2000/svg">
<path d="M36.9372 9.72158L36.9839 9.62128V9.51066C36.9839 6.63333 36.502 4.38749 35.4648 2.84826C34.404 1.27392 32.8041 0.5 30.7491 0.5C28.7788 0.5 26.7217 1.53719 24.5893 3.46608C22.4511 5.40022 20.1829 8.27925 17.7816 12.0805C12.9738 19.6911 8.89534 28.9531 5.54048 39.8586C2.18519 50.5291 0.5 60.037 0.5 68.3759C0.5 79.2886 2.26551 87.5595 5.86717 93.1159C9.49308 98.7097 14.9462 101.5 22.147 101.5C28.2733 101.5 33.1986 99.0658 36.8776 94.2161C40.776 89.3921 42.7186 83.6067 42.7186 76.8865C42.7186 70.9144 41.5121 65.9696 39.0607 62.0862C36.6216 57.9865 33.6183 55.8192 30.0323 55.8192C28.6484 55.8192 26.8035 56.1592 24.5182 56.8137C22.4087 57.4178 19.8989 58.2974 16.991 59.45C17.6746 53.5918 20.8396 44.476 26.5435 32.0609C26.5436 32.0605 26.5438 32.0602 26.5439 32.0598L36.9372 9.72158ZM62.5553 87.0297L62.5552 87.0298L62.5609 87.0411C66.4378 94.7125 71.7185 98.6631 78.4194 98.6631C82.682 98.6631 87.5827 95.9461 93.0999 90.7249L93.1 90.725L93.1079 90.7171C98.621 85.2627 101.5 80.4093 101.5 76.1773C101.5 72.2361 99.8719 69.0199 96.6511 66.5655C93.6816 64.1204 89.982 62.9113 85.5878 62.9113C82.1099 62.9113 78.5381 63.7802 74.8766 65.5003C74.4647 62.4817 74.2599 59.7765 74.2599 57.383C74.2599 55.089 75.0789 50.424 76.7514 43.3304C78.6375 37.2832 84.4332 28.1343 94.2226 15.8506L94.2458 15.8214L94.2645 15.7891C95.2637 14.059 95.7652 12.1999 95.7652 10.2199C95.7652 8.23367 95.1976 6.6577 93.9825 5.58908C92.7797 4.53124 91.0266 4.0461 88.8136 4.0461C86.2836 4.0461 83.788 5.0493 81.3349 6.99093L81.2934 7.02378L81.2596 7.0646C65.2169 26.4901 57.1308 44.2133 57.1308 60.2199C57.1308 70.4438 58.9333 79.385 62.5553 87.0297Z" stroke="#FF7B59"/>
</svg>
